# xmcd CD database file
#
# Track frame offsets:
#       150
#       14711
#       24252
#       36030
#       49824
#       65766
#       83036
#       99501
#       116678
#       132102
#       146296
#       163897
#       185817
#       205755
#       220765
#
# Disc length: 3184 seconds
#
# Revision: 0
# Processed by: cddbd v1.5.2PL0 Copyright (c) Steve Scherf et al.
# Submitted via: jack 3.1.1
#
DISCID=d40c6e0f
DTITLE=Various Artist - Now! Country Classics - Disc 2
DYEAR=2007
DGENRE=Country
TTITLE0=Glen Campbell - Rhinestone Cowboy
TTITLE1=Linda Ronstadt - When Will I Be Loved
TTITLE2=Crystal Gayle - Don't It Make My Brown Eyes Blue
TTITLE3=Willie Nelson - Funny How Time Slips Away
TTITLE4=Billie Jo Spears - Blanket On The Ground
TTITLE5=Kenny Rogers - We've Got Tonight (Duet with Sheena Easton)
TTITLE6=Dan Seals - Bop
TTITLE7=Don Williams - Heartbeat In The Darkness
TTITLE8=Billy Dean - We Just Disagree
TTITLE9=Suzy Bogguss - Drive South
TTITLE10=John Berry - Your Love Amazes Me
TTITLE11=Rankin Family - You Feel The Same Way Too
TTITLE12=Susan Aglukark - O Siem
TTITLE13=Bruce Guthro - Walk This Road
TTITLE14=Trace Adkins - (This Ain't) No Thinkin' Thing
EXTD=
EXTT0=
EXTT1=
EXTT2=
EXTT3=
EXTT4=
EXTT5=
EXTT6=
EXTT7=
EXTT8=
EXTT9=
EXTT10=
EXTT11=
EXTT12=
EXTT13=
EXTT14=
PLAYORDER=
